<?xml version="1.0" encoding="utf-8"?>
<!-- Generator: Adobe Illustrator 24.0.2, SVG Export Plug-In . SVG Version: 6.00 Build 0)  -->
<svg preserveAspectRatio="none" version="1.1" id="Capa_1" xmlns="http://www.w3.org/2000/svg" xmlns:xlink="http://www.w3.org/1999/xlink" x="0px" y="0px"
	 viewBox="0 0 1280 1024" style="enable-background:new 0 0 1280 1024;" xml:space="preserve">
<style type="text/css">
	.st0{fill:#0F184A;}
	.st1{fill:#E23E11;}
</style>
<g>
	<path class="st0" d="M900.7,1024H1.3c-0.2,0-0.3-0.1-0.3-0.3V0.3C1,0.1,1.1,0,1.3,0h899.4c0.2,0,0.3,0.1,0.3,0.3v1023.4
		C901,1023.9,900.9,1024,900.7,1024z"/>
</g>
<g>
	<path class="st1" d="M1222.6,1024H908.4c-31.6,0-57.4-25.8-57.4-57.4V57.4C851,25.8,876.8,0,908.4,0h275.7c0,0-18.9,0,38.5,0
		c22.7,0,39.1-0.8,47.4,6c12.7,10.4,10,32.3,10,51.4v909.2C1280,998.2,1254.2,1024,1222.6,1024z"/>
</g>
<rect x="1230" y="0" class="st1" width="50" height="41"/>
<rect x="1219" y="960" class="st1" width="61" height="64"/>
</svg>
