<?xml version="1.0" encoding="utf-8"?>
<!-- Generator: Adobe Illustrator 24.0.2, SVG Export Plug-In . SVG Version: 6.00 Build 0)  -->
<svg version="1.1" id="Capa_1" xmlns="http://www.w3.org/2000/svg" xmlns:xlink="http://www.w3.org/1999/xlink" x="0px" y="0px"
	 viewBox="0 0 212 202" style="enable-background:new 0 0 212 202;" xml:space="preserve">
<style type="text/css">
	.st0{fill:#0F184A;}
	.st1{fill:#E0C53F;}
	.st2{fill:#CDAE3A;}
	.st3{fill:#9D7018;}
	.st4{fill:#97650F;}
	.st5{fill:#D7B939;}
	.st6{fill:#9D6D13;}
	.st7{fill:#E7CE43;}
	.st8{fill:#AC811D;}
	.st9{fill:#B28921;}
	.st10{fill:#C7A635;}
	.st11{fill:#B79024;}
	.st12{fill:#966613;}
	.st13{fill:#BC9627;}
	.st14{fill:#B68F24;}
	.st15{fill:#BB9527;}
	.st16{fill:#DBBE3C;}
	.st17{fill:#C19E2C;}
	.st18{fill:#8D5B0D;}
	.st19{fill:#9A6B16;}
	.st20{fill:#CBAC39;}
	.st21{fill:#D4B73F;}
	.st22{fill:#FEFEFE;}
	.st23{fill:#A0741A;}
	.st24{fill:#D8BD42;}
	.st25{fill:#C2A032;}
	.st26{fill:#AE8524;}
	.st27{fill:#D3B63E;}
	.st28{fill:#A57A1E;}
	.st29{fill:#986914;}
	.st30{fill:#B9942C;}
	.st31{fill:#A77C1F;}
	.st32{fill:#926210;}
	.st33{fill:#B38D28;}
	.st34{fill:#BA952C;}
	.st35{fill:#936311;}
	.st36{fill:#D9BF44;}
	.st37{fill:#A77E20;}
	.st38{fill:#FCFCFC;}
	.st39{fill:#9D6F18;}
	.st40{fill:#885509;}
	.st41{fill:#FEFEFD;}
	.st42{fill:#B18820;}
	.st43{fill:#FDFDFD;}
	.st44{fill:#FAF7F2;}
</style>
<g>
	<path class="st0" d="M115.2,9.7c1.8-0.9,3.5-1.8,5.3-2.7c0.7-0.4,1.1-0.3,1.7,0.2c6.1,6.1,12.3,12.1,18.4,18.1
		c3.3,3.3,6.6,6.5,9.9,9.8c0.4,0.4,0.9,0.8,1.4,1.2c0.2,0.3,0.4,0.5,0.7,0.8c3.3,3.3,6.7,6.6,10,9.9c1,1,2,1.9,3,2.9
		c3.2,3.1,6.3,6.2,9.5,9.3c0.6,0.5,1.1,1.1,1.7,1.6c0.2,0.3,0.4,0.5,0.7,0.8c2.3,2.3,4.6,4.5,6.9,6.8c-1.2,2.1-2.5,4.2-3.7,6.3
		c-1.6,2.8-3.2,5.6-4.5,8.6c-1.6,3-3.1,6.1-4.3,9.2c-0.9,2.3-2.1,4.6-2.8,7.1c-0.7,1.4-1.2,3-1.7,4.5c-1.2,3.3-2.3,6.7-3.1,10.2
		c-0.3,0.8-0.4,1.7-0.8,2.5c-2.8,5.6-6.5,10.5-11.9,14c-1.9,1.3-4.1,2.2-6.5,1.7c-1.5-0.9-2.1-2.2-2.1-3.9c0.1-2.4,0.5-4.8,1.2-7.2
		c0.1,0,0.1-0.1,0.1-0.1c1.5-4.7,3.4-9.3,5.5-13.8c0.4-1,0.1-1.6-0.7-2.1c-1-0.6-2-0.8-3.1-1.2c-0.7-0.2-1.1-0.1-1.5,0.7
		c-1.4,3-2.9,6-4.4,9c-2.5,5.1-5.4,10-9,14.3c-0.8,1-1.7,1.8-2.8,2.5c-2.2,1.5-5.4,1.3-6.1-2.6c-0.8-4.6,0.1-9,1.5-13.4
		c0.1-0.1,0.2-0.1,0.2-0.2c1.4-3.7,2.7-7.4,4.8-10.7c0.2-0.4,0.2-0.7-0.2-1c-2.4-2.1-4.2-2.4-6,0.5c-2.1,3.3-3.5,7-4.6,10.7
		c-0.8,2.6-1.8,5.2-3.3,7.5c-2,2.8-4.3,5.2-6.8,7.5c-0.7,0.5-1.3,1-2,1.5c-0.5-1.2-1.1-2.3-1.8-3.3c-1.1-2.2-2.9-3.9-4.8-5.4
		c-0.1-0.4-0.7-0.4-0.7-0.9c1.5-0.8,3-1.7,4.4-2.7c4.4-3.5,7.7-7.6,7.9-13.5c0.1-2.3-0.3-4.6-2.2-6.3c-0.1-0.5-0.5-0.7-0.9-1
		c-3.3-2.7-8.6-2.3-12.1-0.3c-2,1.2-3.6,2.9-4.9,4.8c-2.6,4-4.7,8.3-6.4,12.8c-1.5,3.3-3.2,6.5-5.3,9.4c-1.7,2.3-3.3,4.7-5.8,6.2
		c-2,1.2-4.4,1.8-5.9-0.9c-0.5-1.3-0.7-2.6-0.9-3.9c-0.3-2.6,0.1-5.1,0-7.7c0.4-4,0.9-8,1.7-11.9c0.7-3.3,1.4-6.6,2.1-10
		c1.7-6.9,3.7-13.8,5.7-20.7c1.3-3.5,2.3-7.2,3.9-10.6c0.7-1.5,1.4-3.1,2.6-4.3c0.3-0.3,0.2-0.5-0.2-0.7C82,58.8,81.5,58.4,81,58
		c-2.6-2.1-4.2-2.2-6.5-0.6c-1,0.7-1.9,1.4-2.7,2.3c-5.7,5.7-10.6,12-15.4,18.4c-2,2.6-3.9,5.1-5.7,7.8c-2.6,3.3-4.9,6.8-7.2,10.3
		c-0.8,1.2-1.5,1.6-3,1.3c-2.7-0.5-5.4-0.7-8.2-0.3c-1.4,0-2.7,0.3-3.9,0.8c-1.8,0.7-3.4,1.8-4.2,3.8c-0.2,0.2-0.3,0.4-0.2,0.7
		c4.9,0,9.8,0.1,14.9,0.5c-0.6,0.9-1.1,1.7-1.5,2.5c-1,1.7-2.3,3.3-3.1,5.2c-0.2,0.3-0.4,0.6-0.6,0.9c-3.1,5.1-6,10.4-8.4,15.9
		c-0.1,0.2,0,0.8-0.6,0.4c-0.3-2.6-0.8-5.1-1.3-7.6c0-0.4,0-0.8-0.1-1.1c-1.7-10.2-3.4-20.5-5.1-30.7c-0.8-5-1.7-10.1-2.6-15.1
		c-0.2-2-0.5-4-1-5.9c-0.2-1.3-0.4-2.7-0.6-4c-0.1-0.7,0.1-1,0.7-1.3c8.4-4.3,16.8-8.7,25.1-13.1c0.8-0.4,1.6-0.8,2.2-1.5
		c0.5,0,0.9-0.1,1.3-0.4c10.1-5.3,20.3-10.6,30.4-15.9c0.3-0.1,0.5-0.2,0.8-0.3c6.8-3.6,13.7-7.1,20.5-10.7c5.1-2.6,10.1-5.3,15.2-8
		C111.8,11.5,113.5,10.6,115.2,9.7z"/>
	<path class="st0" d="M38,182.9c-1.1-0.2-2.1-0.4-3.2-0.5c-0.7,0-1-0.4-1.1-1c-0.8-4.7-1.6-9.4-2.4-14.1c-0.5-3-1-6-1.5-9
		c-0.1-0.8-0.4-1.5-0.6-2.3c0-0.4,0.1-0.9,0-1.3c-0.7-4.3-1.4-8.7-2.2-13c-0.1-0.6,0-1.2,0.2-1.7c1.7-3.8,3.4-7.5,5.1-11.3
		c0.7-1.6,1.5-3.3,2.2-4.9c0.1-0.1,0.1-0.2,0.2-0.2c3-6.1,6-12.1,9.2-18c0.3-0.6,0.3-1.4,1-1.8c0.3,0.2,0.7,0.2,1,0.2
		c4.6,0.6,9.2,1.2,13.8,1.9c0.3,0,0.7-0.1,0.8,0.4c-0.8,3-1.2,6-1.5,9.1c-0.2,2.7-0.5,5.3-0.2,8c0,3.4,0.5,6.7,2.4,9.6
		c0.4,0.6,0.9,1.2,1.5,1.6c2.9,1.9,5.8,1.5,8.7,0.2c2.7-1.2,4.8-3.2,6.6-5.4c2.5-3,4.3-6.4,6-9.9c0.9-1.8,1.9-3.5,2.5-5.4
		c1.6-3.5,3.6-6.9,5.9-9.9c1.6-2.1,3.7-3.7,6.3-4.4c2.6-0.7,4.1-0.1,5.4,2.2c0.2,0.7,0.5,1.4,0.5,2.1c0.2,4.8-1.7,8.9-4.8,12.4
		c-1.8,2-4,3.3-6.7,4.1c1.5,1.1,2.6,2.3,3.8,3.5c1.3,1.7,2.3,3.6,3,5.6c0.2,1.1,0.3,2.2,0.5,3.2c0.1,0.7,0,1.2-0.7,1.6
		c-2.6,1.6-5.2,3.3-7.9,4.9c-4.5,2.7-9,5.4-12.9,8.9c-2.4,2.2-4.3,4.8-4.3,8.3c0,1.7,0.2,3.3,1.9,4.4c0.2,0.4,0.5,0.4,0.8,0.5
		c3.4,1.3,6.8,0.8,10.1-0.1c4.6-1.3,8.3-4,11.5-7.4c3.2-3.5,5.9-7.3,7-12c0.2-0.9,0.4-1.9,0.5-2.8c0.4-1.8,0.4-3.7,0.1-5.5
		c-0.2-0.9,0-1.5,0.8-2.1c2.5-1.9,4.7-4.1,6.7-6.5c0.6-0.7,1.1-1.4,1.8-2.3c0,0.8-0.1,1.3-0.1,1.8c0,2.8,0.3,5.5,2,7.8
		c0,0.1,0,0.2,0.1,0.3c2.4,3.3,6.2,4.1,9.7,2c2.8-1.7,4.7-4.1,6.6-6.7c1.1-1.4,2-3,2.9-4.6c0.2,0.6,0,0.9,0,1.3
		c-0.3,1.8-0.5,3.6-0.1,5.5c0.2,2.3,1.3,4.1,3.5,5.1c0.2,0.1,0.5,0.3,0.7,0.3c4.1,1,7.7-0.1,11.1-2.3c3.7-2.4,6.7-5.6,9.2-9.2
		c0.3-0.4,0.5-0.8,0.8-1.1c0.1,2.4,0.1,4.7,0.8,6.9c0.6,3.2,2.8,5.5,5.8,6c3.2,0.6,6.2-0.1,8.9-1.8c4.3-2.7,7.2-6.7,9.7-11
		c1.2-2.1,2.4-4.2,3.3-6.4c-0.5-0.3-0.9-0.6-1.5-0.8c-0.2,0.3-0.4,0.7-0.5,1c-1.3,2.8-2.8,5.4-4.5,7.9c-1.8,2.6-3.7,5.2-6.6,6.9
		c-3.6,2.1-6.2,1.3-7.8-2.5c0,0,0,0-0.1-0.1c-0.1-1.1-0.3-2.2-0.4-3.3c-0.2-3.6,0.4-7.1,1.1-10.5c0.2-0.9,0.5-1.6,1.2-2.2
		c2.4-2,4.5-4.1,6.5-6.5c4.4-5.2,8.3-10.8,11.4-17c0.4-0.3,0.6-0.8,0.8-1.2c1.6-3,3-6,4.5-9c1.2,1.2,2.4,2.4,3.7,3.5
		c1.3,1.4,2.6,2.7,4,3.9c1.6,1.6,3.1,3.2,4.7,4.7c0.4,0.4,0.5,0.8,0.3,1.3c-4.2,8.4-8.4,16.8-12.6,25.2c-2.4,4.9-4.9,9.7-7.3,14.6
		c-0.2,0.5-0.4,0.9-0.5,1.4c-0.3,0.1-0.3,0.4-0.5,0.7c-2.8,5.7-5.7,11.3-8.5,17c-2.2,4.5-4.6,8.8-6.5,13.4c-0.3,0.1-0.3,0.3-0.4,0.5
		c-2.4,4.9-4.9,9.8-7.3,14.7c-1.6,3.3-3.3,6.7-4.9,10c-1,1.7-1.8,3.4-2.6,5.2c-0.7,1.4-1.5,2.8-2.2,4.3c-0.3,0.7-0.7,0.8-1.4,0.7
		c-5.2-0.8-10.4-1.6-15.5-2.4c-5.7-0.9-11.4-1.7-17.1-2.6c-0.3-0.1-0.7,0-1-0.1c-0.2-0.1-0.3-0.1-0.5-0.2c-6-0.9-11.9-1.8-17.9-2.7
		c-5.3-0.8-10.6-1.5-15.9-2.3c-0.2,0-0.4,0-0.7-0.1c-0.1,0-0.3-0.1-0.4-0.1c-10.2-1.5-20.5-3.1-30.7-4.6c-3.1-0.5-6.2-1.1-9.3-1.3
		C41.9,183.5,39.9,183.2,38,182.9z"/>
	<path class="st1" d="M73.6,31.4c-10.1,5.3-20.3,10.6-30.4,15.9c-0.4,0.2-0.8,0.3-1.3,0.4c2.2-1.9,4.6-3.5,7-5.2
		C64.3,31.3,79.6,20.2,94.9,9c3-2.2,6.1-4.4,9.1-6.6c0.5-0.4,0.9-0.4,1.4,0c1,0.8,2,1.6,3.1,2.3c-1.4,0.6-2.3,1.8-3.2,2.9
		c-0.2,0.2-0.4,0.6-0.2,1c-0.2,0-0.4,0.1-0.6,0.2C95,15.6,85.6,22.4,76.3,29.2C75.4,29.9,74.3,30.4,73.6,31.4z"/>
	<path class="st2" d="M44.9,103.5c-0.6,0.4-0.6,1.2-1,1.8c-3.2,6-6.2,12-9.2,18c0,0.1-0.1,0.2-0.2,0.2c-0.4,0.2-0.6,0.7-0.9,1
		c-1.2,1.2-2.4,2.3-3.8,3.2c-1.1,0.8-1.8,1.9-2.8,2.7c-1.8,1.4-3.8,2.6-4.2,5.2c0,0.1-0.2,0.1-0.2,0.2c-0.2-0.5-0.5-1-0.5-1.6
		c0.4-1.5,1.1-2.9,1.8-4.2c0.3-0.7,0.8-1.3,0.7-2.1c0.5,0.4,0.5-0.2,0.6-0.4c2.4-5.5,5.3-10.8,8.4-15.9c0.2-0.3,0.4-0.6,0.6-0.9
		c0.1,0.2-0.2,0.5,0.1,0.7c0.4,0,0.7-0.3,1-0.5c1.3-1.1,2.5-2.4,3.8-3.5c1.8-1.5,3.5-2.9,5.1-4.6c0.3-0.3,0.7-0.5,1-0.8
		c1-1,2.6-1.6,3-3.1c1.5,0.4,3.1,0.7,4.6,1.1c0.6,0.6,1.6,0.3,2.3,1.1c-1.1,1-2.1,2-3.1,2.9c-0.2,0.2-0.5,0.2-0.8,0.1
		c-0.8-0.1-1.6-0.3-2.3-0.3C47.5,103.7,46.2,103.3,44.9,103.5z"/>
	<path class="st3" d="M176.1,83.2c1.3-3,2.9-5.8,4.5-8.6c1.2-2.1,2.5-4.2,3.7-6.3c0.3-0.4,0.6-0.8,0.9-1.3c1.1-1.6,2.1-3.3,3.4-4.8
		c1.4-2,2.9-3.8,4.8-5.3c1.8-1.4,3.1-1.1,4.1,0.9c1.4,2.7,1.8,5.6,1.2,8.6c0-0.7-0.3-0.8-0.9-0.4c-0.7,0.5-1.2,1.4-2.1,1.8
		c0-0.2,0-0.5,0-0.7c0-0.2,0-0.5,0-0.7c0-0.6,0.1-1.4-0.6-1.7c-0.7-0.3-1.1,0.3-1.6,0.7c-0.2,0.1-0.4,0.3-0.5,0.5
		c-1.1,1.5-2.2,2.9-3.4,4.4c-0.4,0.7-0.7,1.4-1.1,2c-0.5,0.7-0.9,1.3-1.4,2c-0.1-0.5-0.3-0.5-0.6-0.2c-3,2.6-6,5.1-8.9,7.8
		C177.2,82.6,176.8,83.1,176.1,83.2z"/>
	<path class="st4" d="M156.4,195.1c0.8-1.8,1.6-3.5,2.6-5.2c1.6,0,3.1,0,4.7,0c0.3-0.9,0.6-1.8,0.9-2.7c1.4-4.2,2.8-8.4,4.1-12.5
		c0.3-0.5,0.7-1,1.1-1.4c1.2-1.2,2.5-2.4,3.6-3.7c0.5-0.6,1.2-1.2,1.7-1.8c0.4-0.4,0.7-0.3,0.9,0.3c-1.2,3.9-2.4,7.7-3.7,11.6
		c-1.6,4.9-3.2,9.7-4.7,14.6c-0.2,0.7-0.5,1-1.3,1C163.1,195,159.8,195.1,156.4,195.1z"/>
	<path class="st5" d="M24.7,127.8c0.1,0.8-0.4,1.4-0.7,2.1c-0.7,1.4-1.4,2.7-1.8,4.2c-1.3-3.8-2.5-7.6-3.8-11.4
		c-1.3-3.9-2.6-7.9-3.9-11.8c-0.1-0.2-0.1-0.3-0.1-0.5c0.8-1.4,2-2.3,3-3.5c0.3-0.4,0.6-0.8,1.2-0.7c0.7,2,1.4,4,2.1,6
		c0.9,2.7,1.7,5.4,2.7,8.1C23.9,122.8,24.4,125.3,24.7,127.8z"/>
	<path class="st6" d="M176.1,167.9c-0.2-0.5-0.4-0.7-0.9-0.3c-0.6,0.6-1.2,1.2-1.7,1.8c-1.1,1.3-2.4,2.5-3.6,3.7
		c-0.4,0.4-0.8,0.9-1.1,1.4c0.1-0.4,0.2-0.7,0.3-1.1c0.8-2.6,1.7-5.1,2.5-7.7c0.1-0.4,0.3-0.8,0.2-1.2c2-4.6,4.3-9,6.5-13.4
		c2.8-5.7,5.6-11.3,8.5-17c0.1-0.2,0.2-0.5,0.5-0.7c0.1,0.4,0,0.7-0.1,1.1c-3.5,10.8-7,21.6-10.5,32.4
		C176.4,167.3,176.2,167.6,176.1,167.9z"/>
	<path class="st7" d="M14.6,67.4c0.4,2,0.7,3.9,1,5.9c-1.7,1.3-3.4,2.6-5.2,3.8c-0.7,0.5-0.8,0.9-0.5,1.6c0.8,2.5,1.6,4.9,2.4,7.4
		c-1.3,0.1-4.1,3-4.2,4.3c0,0,0,0.1,0,0.1c-1.1-3.3-2.2-6.6-3.3-10c-0.4-1.4-0.8-2.7-1.3-4.1c-0.2-0.6-0.1-0.9,0.4-1.2
		C7.3,72.7,11,70,14.6,67.4z"/>
	<path class="st1" d="M7.9,90.5c0,0,0-0.1,0-0.1c0.1-1.3,2.9-4.2,4.2-4.3c0.1,0.2,0.2,0.4,0.3,0.7c1.3,3.9,2.5,7.7,3.7,11.6
		c0.8,2.6,1.8,5.1,2.4,7.8c-0.6-0.1-0.9,0.3-1.2,0.7c-1,1.2-2.2,2.2-3,3.5c-0.9-2.8-1.9-5.5-2.8-8.3C10.4,98.3,9.2,94.4,7.9,90.5z"
		/>
	<path class="st8" d="M84.9,189.9c5.3,0.8,10.6,1.5,15.9,2.3c6,0.9,11.9,1.8,17.9,2.7c0.2,0,0.3,0.1,0.5,0.2c-11.6,0-23.3,0-34.9,0
		c-1.5,0-2.9,0-4.4,0c0.1-0.2,0.1-0.4,0.2-0.5C81.6,192.9,83,191.1,84.9,189.9z"/>
	<path class="st9" d="M84.9,189.9c-2,1.2-3.3,3-4.8,4.7c-0.1,0.1-0.1,0.3-0.2,0.5c-6.5,0-12.9,0-19.4,0c0-0.3,0.1-0.5,0.3-0.6
		c1-0.5,1.5-1.5,2.2-2.3c1.2-1.3,2.3-2.4,4.3-2.1c0.9,0.1,1.9,0.1,2.8,0c0.8,0,1.7,0.2,2.5-0.2c3.9,0,7.8,0,11.7-0.1
		C84.5,189.8,84.7,189.9,84.9,189.9z"/>
	<path class="st10" d="M22.6,135.8c0.1-0.1,0.2-0.1,0.2-0.2c0.4-2.5,2.4-3.8,4.2-5.2c1-0.8,1.7-1.9,2.8-2.7c1.3-1,2.6-2,3.8-3.2
		c0.3-0.3,0.5-0.8,0.9-1c-0.7,1.6-1.5,3.3-2.2,4.9c-1.7,3.8-3.4,7.5-5.1,11.3c-0.3,0.6-0.3,1.1-0.2,1.7c0.7,4.3,1.5,8.7,2.2,13
		c0.1,0.4,0,0.9,0,1.3c-0.6-1.1-0.8-2.3-1.2-3.5c-1.3-4-2.6-8.1-4-12.1C23.5,138.8,22.9,137.3,22.6,135.8z"/>
	<path class="st11" d="M72.6,189.9c-0.8,0.4-1.6,0.1-2.5,0.2c-0.9,0-1.9,0.1-2.8,0c-1.9-0.3-3.1,0.8-4.3,2.1
		c-0.7,0.8-1.2,1.8-2.2,2.3c-0.2,0.1-0.3,0.3-0.3,0.6c-5.4,0-10.7,0-16.1,0c0.7-1.4,2.1-2.3,3.1-3.6c0.8-1.1,2-1.5,3.4-1.5
		c1.2,0,2.4,0.2,3.6-0.1C60.5,189.9,66.6,189.9,72.6,189.9z"/>
	<path class="st8" d="M202.6,86.3c-1.4-1.2-2.7-2.5-4-3.9c0.4-1.3,0.9-2.7,1.3-4c0.1-0.3,0.3-0.6-0.1-0.8c-1.2-0.8-2.2-1.8-3.5-2.4
		c0.7-1.7,1.2-3.5,1.7-5.3c2.5,1.8,4.9,3.6,7.4,5.4c0.6,0.4,0.7,0.8,0.5,1.4c-1,2.9-1.9,5.8-2.9,8.7C202.9,85.7,202.9,86,202.6,86.3
		z"/>
	<path class="st12" d="M198.1,69.8c-0.5,1.8-1,3.6-1.7,5.3c-0.5,1.2-0.9,2.5-1.4,3.7c-1.5,3-2.9,6.1-4.5,9c-0.2,0.4-0.4,0.9-0.8,1.2
		c-0.1-0.6-0.4-0.3-0.6-0.1c-1.3,0.9-2.3,2.1-3.8,2.8c0.8-1.4,1.6-2.8,2.3-4.3c1.9-3.6,3.8-7.1,5.2-10.9c0.4-0.9,0.8-1.9,1.3-2.8
		c0.6-1.9,1.1-3.9,1.7-5.8c0.9-0.4,1.3-1.2,2.1-1.8c0.6-0.4,0.8-0.4,0.9,0.4C198.6,67.7,198.4,68.8,198.1,69.8z"/>
	<path class="st13" d="M54.5,189.9c-1.2,0.4-2.4,0.2-3.6,0.1c-1.4,0-2.5,0.4-3.4,1.5c-1,1.2-2.3,2.1-3.1,3.6
		c-2.6,0.2-2.6,0.2-3.4-2.3c-1-3.3-2.1-6.6-3.1-9.9c2,0.3,4,0.6,5.9,0.9c0.6,1.7,1.2,3.5,1.7,5.2c0.2,0.7,0.5,0.8,1.2,0.8
		C49.3,189.8,51.9,189.9,54.5,189.9z"/>
	<path class="st14" d="M188.6,62.4c-1.3,1.5-2.3,3.1-3.4,4.8c-0.1-0.1-0.1-0.3-0.2-0.3c-2.8-2-5.5-4-8.3-6c-0.6-0.5-1.1-1.1-1.7-1.6
		c0.6,0.3,1,0.1,1.4-0.4c0.8-1,1.7-1.9,2.8-2.5c2.7,2,5.5,3.9,8.2,5.9C187.8,62.4,188.2,62.8,188.6,62.4z"/>
	<path class="st15" d="M179.3,56.3c-1.1,0.6-2.1,1.5-2.8,2.5c-0.4,0.5-0.8,0.7-1.4,0.4c-3.2-3.1-6.3-6.2-9.5-9.3
		c0.8-0.7,1.5-1.5,2.5-1.7C171.9,50.8,175.6,53.5,179.3,56.3z"/>
	<path class="st16" d="M105,8.6c-0.2-0.4-0.1-0.7,0.2-1c1-1.1,1.9-2.2,3.2-2.9c2.3,1.6,4.6,3.2,6.8,5c-1.7,0.9-3.4,1.8-5.1,2.7
		C108.4,11.1,106.7,9.8,105,8.6z"/>
	<path class="st17" d="M168.1,48.2c-1.1,0.2-1.8,1-2.5,1.7c-1-1-2-1.9-3-2.9c-3.3-3.3-6.7-6.6-10-9.9c-0.2-0.2-0.5-0.5-0.7-0.8
		C157.4,40.3,162.8,44.2,168.1,48.2z"/>
	<path class="st18" d="M185.3,91.8c1.4-0.7,2.5-1.9,3.8-2.8c0.2-0.2,0.5-0.5,0.6,0.1c-3.1,6.1-7,11.7-11.4,17
		c-2,2.3-4.1,4.5-6.5,6.5c-0.7,0.6-1.1,1.3-1.2,2.2c-0.7,3.5-1.3,7-1.1,10.5c0.1,1.1,0.3,2.2,0.4,3.3c-0.2-0.1-0.3-0.4-0.3-0.6
		c-0.4-2.2-0.4-4.3-0.2-6.5c0.1-0.9,0.2-1.9,0.2-2.8c-0.5-0.2-0.7,0.1-0.8,0.3c-1.6,1.8-3.6,3.1-5.3,4.8c-0.6,0.6-0.8,1.2-0.6,2
		c0.2,1.2,0.2,2.5,0.3,3.7c-0.7-2.2-0.6-4.5-0.8-6.9c-0.3,0.4-0.5,0.7-0.8,1.1c-2.5,3.7-5.5,6.8-9.2,9.2c-3.4,2.2-7,3.3-11.1,2.3
		c-0.3-0.1-0.5-0.2-0.7-0.3c0.6-1.6,2.2-2.1,3.1-3.3c0.5,0.3,0.8,0.8,1.3,0.7c2.4,0.5,4.5-0.4,6.5-1.7c5.3-3.5,9.1-8.4,11.9-14
		c0.4-0.8,0.5-1.6,0.8-2.5c0.3-0.1,0.3-0.5,0.6-0.7c2.4-1.9,4.7-3.9,6.9-6c0.3-0.3,0.6-0.5,0.7,0.1c-0.2,0.6-0.4,1.2-0.6,1.9
		c0.4,0.1,0.5-0.2,0.7-0.3c0.8-0.4,1.4-1,1.8-1.9c2.9-3.6,5.8-7.2,8.3-11.2C183.4,94.6,184.3,93.2,185.3,91.8z"/>
	<path class="st19" d="M137.1,129.8c-0.4-1.8-0.2-3.6,0.1-5.5c0.1-0.4,0.2-0.7,0-1.3c-0.9,1.7-1.9,3.2-2.9,4.6
		c-1.9,2.6-3.8,5-6.6,6.7c-3.5,2.1-7.3,1.4-9.7-2c-0.1-0.1,0-0.2-0.1-0.3c0.1-0.4-0.4-0.8,0.2-1.1c0.8-0.5,1.3-1.3,2-1.8
		c0.7-0.5,1.2-1.3,2.2-1.3c0.7,3.9,3.9,4,6.1,2.6c1-0.7,2-1.5,2.8-2.5c3.6-4.4,6.5-9.3,9-14.3c1.5-3,3-6,4.4-9
		c0.3-0.7,0.7-0.9,1.5-0.7c1.1,0.3,2.1,0.6,3.1,1.2c0.8,0.5,1.2,1.1,0.7,2.1c-2,4.5-3.9,9.1-5.5,13.8c0,0.1-0.1,0.1-0.1,0.1
		c-0.2-0.4,0.4-0.9-0.1-1.4c-1.7,1.5-3.4,3.1-5.2,4.4c-1.7,1.2-2.1,2.7-1.8,4.5C137.1,129.1,137.1,129.4,137.1,129.8z"/>
	<path class="st20" d="M44.9,103.5c1.3-0.1,2.6,0.2,3.9,0.3c0.8,0.1,1.6,0.2,2.3,0.3c0.3,0,0.6,0.1,0.8-0.1c1-1,2.1-2,3.1-2.9
		c-0.7-0.7-1.7-0.5-2.3-1.1c2.5,0.6,4.9,1.1,7.4,1.8c0.7,0.2,1.1,0.2,1.3-0.7c0.2-1.5,0.7-2.9,1-4.3c1-3.9,2-7.8,3.3-11.6
		c0,0.4,0.2,0.5,0.6,0.3c0.4-0.3,0.9-0.5,1.2-0.9c1-1.2,2.3-1.9,3.3-3c1.8-2,4.5-3.3,5-6.3c0-0.1,0.2-0.2,0.3-0.3
		c-2,6.9-4,13.7-5.7,20.7c-0.7,1.1-0.6,2.5-1.9,3.4c-1.2,0.8-2.1,2-3.2,3c-0.8,0.6-1.6,1.2-2.3,1.8c-0.8,0.8-1.6,1.6-2.4,2.2
		c-0.1-0.5-0.5-0.4-0.8-0.4c-4.6-0.6-9.2-1.2-13.8-1.9C45.5,103.6,45.2,103.7,44.9,103.5z"/>
	<path class="st21" d="M48.2,98.9c-0.5,1.6-2,2.1-3,3.1c-0.3,0.3-0.7,0.4-1,0.8c-1.6,1.6-3.3,3.1-5.1,4.6c-1.3,1.1-2.5,2.4-3.8,3.5
		c-0.3,0.2-0.6,0.5-1,0.5c-0.3-0.2,0-0.5-0.1-0.7c0.8-1.9,2.1-3.5,3.1-5.2c0.5-0.8,0.9-1.5,1.5-2.5c-5-0.5-10-0.5-14.9-0.5
		c-0.1-0.4,0-0.5,0.2-0.7c0.1,0.6,0.5,0.4,0.9,0.5c1.9,0.1,3.9-0.2,5.8,0.2c0.3,0.1,0.7,0.1,1-0.2c0.9-1.1,2.1-1.7,3.1-2.7
		c0.7-0.7,1.5-1.3,2.2-2.3c-1.8,0-3.4,0-4.9,0c2.7-0.4,5.5-0.2,8.2,0.3c1.5,0.3,2.2-0.1,3-1.3c2.3-3.5,4.6-7,7.2-10.3
		c0.4,0.5,0.6,0,0.8-0.2c1.6-1.4,3.3-2.8,4.9-4.3c1.1-1,2.3-1.7,3.2-2.9c0.4-0.6,0.6-1.4,1.5-1.7c-0.1,0.1-0.1,0.3-0.2,0.4
		c-3,4.3-5.8,8.8-8.5,13.3c-1.5,2.6-2.8,5.2-4.6,7.7C47.4,98.7,47.8,98.8,48.2,98.9z"/>
	<path class="st22" d="M18.6,106.2c-0.6-2.7-1.6-5.2-2.4-7.8c-1.2-3.9-2.5-7.7-3.7-11.6c-0.1-0.2-0.2-0.4-0.3-0.7
		c-0.8-2.5-1.5-5-2.4-7.4c-0.3-0.7-0.1-1.2,0.5-1.6c1.8-1.2,3.5-2.5,5.2-3.8c0.9,5,1.7,10.1,2.6,15.1c1.7,10.2,3.4,20.5,5.1,30.7
		c0.1,0.4,0.1,0.8,0.1,1.1c-1.1-2.6-1.8-5.4-2.7-8.1C20,110.2,19.3,108.2,18.6,106.2z"/>
	<path class="st23" d="M122.3,127.9c-1,0-1.5,0.8-2.2,1.3c-0.7,0.5-1.2,1.3-2,1.8c-0.6,0.3-0.1,0.7-0.2,1.1c-1.7-2.3-2-5-2-7.8
		c0-0.5,0.1-1,0.1-1.8c-0.7,0.9-1.2,1.6-1.8,2.3c-2,2.4-4.2,4.6-6.7,6.5c-0.8,0.6-0.9,1.2-0.8,2.1c0.3,1.8,0.3,3.7-0.1,5.5
		c-0.5-0.1-0.9,0.3-1.2,0.5c-0.8,0.6-1.6,1.3-2.3,2.1c-1.8,1.7-3.7,3.4-5.7,4.9c0.3-0.7,0.6-1.3,0.9-2c1.1-2.4,1.7-4.8,2.1-7.4
		c0.5-0.4-0.2-1.2,0.4-1.6c1.4-0.9,2.4-2.3,3.7-3.3c1.3-1,2.7-1.9,3.4-3.5c2.5-2.3,4.9-4.7,6.8-7.5c1.1-0.2,2-0.9,2.7-1.7
		c1.7-2,3.9-3.4,5.7-5.3c0.4-0.4,0.7-0.4,0.7,0.2C122.3,118.9,121.5,123.3,122.3,127.9z"/>
	<path class="st24" d="M61,76.8c-0.8,0.3-1,1.1-1.5,1.7c-0.9,1.2-2.1,2-3.2,2.9c-1.6,1.5-3.3,2.9-4.9,4.3c-0.2,0.2-0.4,0.7-0.8,0.2
		c1.8-2.7,3.7-5.3,5.7-7.8c4.8-6.4,9.8-12.7,15.4-18.4c0.8-0.8,1.7-1.6,2.7-2.3c2.3-1.5,3.9-1.5,6.5,0.6c0.5,0.4,1,0.9,1.4,1.3
		c0,0.2-0.1,0.4-0.3,0.5c-2.8,2.2-5.3,4.6-8,6.9C73.5,67.3,73,68,72,68.4c0.1-1.2,1-2.1,1-3.2c0.2-0.6,0.5-1.3,0.7-1.9
		c-0.3-0.2-0.4,0-0.6,0.1c-2,1.4-3.7,3.2-5.3,4.9C65.3,71,63.2,73.9,61,76.8z"/>
	<path class="st25" d="M60.5,106c0.9-0.7,1.7-1.4,2.4-2.2c0.7-0.7,1.5-1.2,2.3-1.8c1.2-0.9,2.1-2.2,3.2-3c1.3-0.9,1.2-2.3,1.9-3.4
		c-0.7,3.3-1.4,6.6-2.1,10c-0.8,3.9-1.3,7.9-1.7,11.9c-0.4-0.1-0.7,0.2-1,0.5c-1.9,1.7-3.8,3.4-5.7,5.1c-0.3,0.3-0.7,0.5-1,0.1
		c-0.3-2.7,0-5.3,0.2-8C59.3,112,59.8,109,60.5,106z"/>
	<path class="st26" d="M97,123.7c-1.2-1.2-2.3-2.4-3.8-3.5c2.7-0.8,4.9-2.1,6.7-4.1c3.1-3.5,5-7.6,4.8-12.4c0-0.7-0.3-1.4-0.5-2.1
		c0.3,0,0.4,0.5,0.7,0.3c1.4-1.2,2.9-2.3,3.8-3.9c1.8,1.7,2.3,3.9,2.2,6.3c-0.2,5.9-3.5,10.1-7.9,13.5c-1.4,1.1-2.8,2-4.4,2.7
		c0.1,0.5,0.6,0.5,0.7,0.9c0,0.3,0.4,0.5,0.3,0.7c-0.4,0.7-1.1,0.9-1.5,1.4C97.7,124.1,97.4,124,97,123.7z"/>
	<path class="st22" d="M105,8.6c1.7,1.3,3.4,2.5,5.2,3.8c-5.1,2.7-10.1,5.3-15.2,8c-6.8,3.6-13.7,7.1-20.5,10.7
		c-0.2,0.1-0.5,0.2-0.8,0.3c0.7-1,1.7-1.5,2.6-2.1c9.4-6.8,18.7-13.6,28.1-20.4C104.6,8.7,104.7,8.5,105,8.6z"/>
	<path class="st27" d="M73,65.2c0.1,1.1-0.9,2-1,3.2c0.9-0.4,1.5-1.1,2.1-1.7c2.7-2.3,5.2-4.7,8-6.9c0.2-0.1,0.3-0.3,0.3-0.5
		c0.4,0.1,0.5,0.3,0.2,0.7c-1.2,1.2-1.9,2.8-2.6,4.3c-1.6,3.4-2.6,7-3.9,10.6c-0.1,0.1-0.3,0.2-0.3,0.3c-0.5,3-3.2,4.3-5,6.3
		c-1,1.1-2.3,1.8-3.3,3c-0.3,0.4-0.8,0.6-1.2,0.9c-0.3,0.2-0.5,0.1-0.6-0.3c0.1-0.9,0.5-1.8,0.8-2.7c0.7-0.7,0.8-1.6,0.9-2.5
		C68.9,74.8,70.8,70,73,65.2z"/>
	<path class="st28" d="M107.9,128.7c-0.6,1.6-2.1,2.5-3.4,3.5c-1.3,1-2.3,2.4-3.7,3.3c-0.6,0.4,0.1,1.2-0.4,1.6
		c-0.1-0.2,0.2-0.5-0.2-0.8c-0.5,0.3-0.9,0.6-1.4,0.9c-5.1,3.3-10.6,6.1-15.4,9.9c-2,1.6-3.9,3.1-5,5.4c-1.1,2.3-0.9,4.5,0.6,6.1
		c-1.3,0.1-1.6,1.5-2.4,2.2c-1.7-1-1.9-2.7-1.9-4.4c0.1-3.5,1.9-6.1,4.3-8.3c3.9-3.6,8.4-6.2,12.9-8.9c2.6-1.6,5.2-3.3,7.9-4.9
		c0.7-0.4,0.8-0.9,0.7-1.6c-0.2-1.1-0.4-2.2-0.5-3.2c1.2-0.5,2.1-1.5,2.9-2.5c0.4-0.5,0.8-0.5,1.2-0.1c0.7,1,1.3,2.1,1.8,3.3
		C106.6,129.6,107.2,129.1,107.9,128.7z"/>
	<path class="st29" d="M176.1,83.2c0.7-0.2,1.1-0.6,1.6-1.1c2.9-2.7,5.9-5.3,8.9-7.8c0.3-0.3,0.5-0.3,0.6,0.2c-1,1.7-2,3.5-2.9,5.3
		c-1.8,3.6-3.6,7.2-5.3,10.8c-0.2,0.5-0.3,1.1-0.8,1.5c-0.3-0.3-0.6-0.1-0.8,0.1c-1.2,1.2-2.5,2.3-3.8,3.4c-1.6,1.2-2.7,3-4.6,3.9
		c0.7-2.4,1.8-4.7,2.8-7.1C173,89.3,174.6,86.3,176.1,83.2z"/>
	<path class="st30" d="M108.7,98c-0.9,1.6-2.4,2.7-3.8,3.9c-0.3,0.3-0.4-0.3-0.7-0.3c-1.3-2.3-2.8-2.9-5.4-2.2
		c-2.6,0.7-4.7,2.3-6.3,4.4c-2.3,3.1-4.3,6.4-5.9,9.9c-0.6-0.1-1,0.4-1.5,0.7c-0.2,0.1-0.5,0.6-0.7-0.1c1.6-4.5,3.7-8.8,6.4-12.8
		c1.3-2,2.9-3.6,4.9-4.8c3.5-2.1,8.8-2.4,12.1,0.3C108.2,97.3,108.6,97.5,108.7,98z"/>
	<path class="st31" d="M123.7,114.5c0-0.7-0.3-0.6-0.7-0.2c-1.8,1.9-4,3.3-5.7,5.3c-0.7,0.8-1.5,1.5-2.7,1.7
		c1.5-2.3,2.4-4.9,3.3-7.5c1.2-3.7,2.5-7.4,4.6-10.7c1.8-2.8,3.6-2.6,6-0.5c0.3,0.3,0.4,0.6,0.2,1c-2,3.4-3.4,7.1-4.8,10.7
		C123.9,114.3,123.8,114.4,123.7,114.5z"/>
	<path class="st32" d="M169,99.5c1.9-0.9,3-2.6,4.6-3.9c1.3-1,2.6-2.1,3.8-3.4c0.2-0.2,0.5-0.4,0.8-0.1c-0.7,1.7-1.4,3.3-2.1,5
		c-1.3,3.4-2.5,6.9-3.8,10.4c-0.1-0.6-0.4-0.4-0.7-0.1c-2.2,2.1-4.6,4.1-6.9,6c-0.3,0.2-0.3,0.6-0.6,0.7c0.7-3.5,1.9-6.8,3.1-10.2
		C167.8,102.5,168.3,100.9,169,99.5z"/>
	<path class="st33" d="M84.5,114.3c0.1,0.6,0.5,0.2,0.7,0.1c0.5-0.2,0.8-0.7,1.5-0.7c-0.6,1.9-1.7,3.6-2.5,5.4c-1.7,3.5-3.5,7-6,9.9
		c-1.9,2.2-3.9,4.3-6.6,5.4c-2.9,1.3-5.9,1.7-8.7-0.2c-0.6-0.4-1.1-0.9-1.5-1.6c0.6,0.1,0.7,0.7,1.3,1c0.4-0.8,1.2-1.3,2-1.9
		c1.1-0.8,2.1-1.6,2.9-2.7c1.6,2.6,3.9,2.1,5.9,0.9c2.5-1.5,4.2-3.9,5.8-6.2C81.3,120.8,83,117.6,84.5,114.3z"/>
	<path class="st34" d="M67.5,129c-0.8,1.1-1.8,2-2.9,2.7c-0.8,0.5-1.5,1.1-2,1.9c-0.6-0.2-0.8-0.9-1.3-1c-2-2.9-2.4-6.2-2.4-9.6
		c0.4,0.4,0.7,0.2,1-0.1c1.9-1.7,3.8-3.4,5.7-5.1c0.3-0.3,0.6-0.5,1-0.5c0.1,2.6-0.4,5.1,0,7.7C66.7,126.5,67,127.8,67.5,129z"/>
	<path class="st35" d="M137.1,129.8c0-0.3,0-0.7,0-1c-0.2-1.8,0.1-3.3,1.8-4.5c1.8-1.3,3.5-2.9,5.2-4.4c0.5,0.5-0.1,0.9,0.1,1.4
		c-0.7,2.3-1.1,4.7-1.2,7.2c-0.1,1.7,0.6,3,2.1,3.9c-0.6,0.1-0.9-0.3-1.3-0.7c-1,1.2-2.6,1.7-3.1,3.3
		C138.4,133.9,137.3,132.1,137.1,129.8z"/>
	<path class="st36" d="M32.3,97.2c1.6,0,3.1,0,4.9,0c-0.7,1-1.5,1.6-2.2,2.3c-1,0.9-2.2,1.6-3.1,2.7c-0.3,0.3-0.6,0.3-1,0.2
		c-1.9-0.4-3.9-0.1-5.8-0.2c-0.4,0-0.8,0.1-0.9-0.5c0.8-1.9,2.4-3,4.2-3.8C29.6,97.5,30.9,97.2,32.3,97.2z"/>
	<path class="st37" d="M104.1,126.8c-0.4-0.4-0.7-0.4-1.2,0.1c-0.9,0.9-1.7,2-2.9,2.5c-0.7-2-1.7-3.9-3-5.6c0.4,0.2,0.8,0.4,1.1-0.1
		c0.4-0.5,1.1-0.7,1.5-1.4c0.1-0.2-0.4-0.4-0.3-0.7C101.2,123,103,124.6,104.1,126.8z"/>
	<path class="st38" d="M176.7,60.8c2.8,2,5.5,4,8.3,6c0.1,0.1,0.1,0.2,0.2,0.3c-0.3,0.4-0.6,0.8-0.9,1.3c-2.3-2.3-4.6-4.5-6.9-6.8
		C177.2,61.4,177,61.1,176.7,60.8z"/>
	<path class="st39" d="M76.6,160.7c0.8-0.7,1.1-2,2.4-2.2c1.4,0.6,2.8,0.5,4.2,0.1c2.2-0.6,4.2-1.7,6-3.1c3.4-2.5,6.2-5.5,8.3-9.1
		c2.1-1.5,3.9-3.1,5.7-4.9c0.7-0.7,1.5-1.4,2.3-2.1c0.3-0.3,0.7-0.6,1.2-0.5c-0.2,0.9-0.3,1.9-0.5,2.8c-1.1,4.7-3.8,8.5-7,12
		c-3.2,3.4-6.9,6.2-11.5,7.4c-3.3,0.9-6.7,1.4-10.1,0.1C77.1,161.1,76.7,161.1,76.6,160.7z"/>
	<path class="st40" d="M163.2,129.4c-0.1-1.2-0.2-2.5-0.3-3.7c-0.1-0.8,0-1.4,0.6-2c1.7-1.7,3.7-3,5.3-4.8c0.2-0.2,0.4-0.4,0.8-0.3
		c-0.1,0.9-0.2,1.8-0.2,2.8c-0.2,2.2-0.2,4.3,0.2,6.5c0,0.2,0.1,0.5,0.3,0.6c0,0,0.1,0,0.1,0.1c1.6,3.8,4.2,4.6,7.8,2.5
		c2.9-1.7,4.7-4.3,6.6-6.9c1.7-2.5,3.2-5.1,4.5-7.9c0.2-0.3,0.3-0.7,0.5-1c0.6,0.2,1,0.4,1.5,0.8c-1,2.2-2.1,4.4-3.3,6.4
		c-2.5,4.3-5.4,8.2-9.7,11c-2.7,1.7-5.7,2.4-8.9,1.8C165.9,134.9,163.8,132.6,163.2,129.4z"/>
	<path class="st22" d="M54.5,189.9c-2.6,0-5.1,0-7.7,0c-0.7,0-1-0.2-1.2-0.8c-0.5-1.8-1.1-3.5-1.7-5.2c3.1,0.3,6.2,0.9,9.3,1.3
		c10.2,1.5,20.5,3,30.7,4.6c0.1,0,0.3,0.1,0.4,0.1c-3.9,0-7.8,0-11.7,0.1C66.6,189.9,60.5,189.9,54.5,189.9z"/>
	<path class="st22" d="M171.7,164.6c0.1,0.4,0,0.8-0.2,1.2c-0.8,2.6-1.7,5.1-2.5,7.7c-0.1,0.4-0.2,0.7-0.3,1.1
		c-1.4,4.2-2.8,8.4-4.1,12.5c-0.3,0.9-0.6,1.8-0.9,2.7c-1.6,0-3.2,0-4.7,0c1.6-3.3,3.3-6.7,4.9-10c2.4-4.9,4.9-9.8,7.3-14.7
		C171.4,164.9,171.4,164.7,171.7,164.6z"/>
	<path class="st41" d="M195,78.8c0.5-1.2,0.9-2.5,1.4-3.7c1.3,0.6,2.3,1.6,3.5,2.4c0.4,0.2,0.2,0.5,0.1,0.8c-0.4,1.3-0.9,2.7-1.3,4
		C197.4,81.2,196.2,80,195,78.8z"/>
	<path class="st0" d="M66.5,82.4c-0.3,0.9-0.7,1.7-0.8,2.7c-1.3,3.8-2.3,7.7-3.3,11.6c-0.4,1.4-0.8,2.9-1,4.3
		c-0.1,0.9-0.5,0.9-1.3,0.7c-2.4-0.6-4.9-1.2-7.4-1.8c-1.5-0.4-3.1-0.7-4.6-1.1c-0.4-0.1-0.8-0.2-0.5-0.7c1.7-2.4,3-5.1,4.6-7.7
		c2.7-4.5,5.5-9,8.5-13.3c0.1-0.1,0.1-0.2,0.2-0.4c2.2-2.9,4.3-5.8,6.8-8.4c1.7-1.8,3.3-3.5,5.3-4.9c0.2-0.1,0.4-0.3,0.6-0.1
		c-0.2,0.6-0.5,1.3-0.7,1.9c-2.2,4.7-4.1,9.6-5.6,14.6C67,80.6,66.8,81.5,66.5,82.4z"/>
	<path class="st0" d="M172.4,107.5c1.2-3.5,2.5-6.9,3.8-10.4c0.6-1.7,1.4-3.3,2.1-5c0.5-0.4,0.6-1,0.8-1.5c1.7-3.7,3.5-7.2,5.3-10.8
		c0.9-1.8,1.9-3.5,2.9-5.3c0.5-0.7,0.9-1.3,1.4-2c1.4,1.4,2.8,2.7,4.2,4.1c-1.4,3.8-3.3,7.3-5.2,10.9c-0.8,1.4-1.6,2.9-2.3,4.3
		c-0.9,1.4-1.8,2.9-2.7,4.3c-2.5,4-5.4,7.6-8.3,11.2c-0.7,0.5-1.2,1.2-1.8,1.9c-0.2,0.1-0.3,0.4-0.7,0.3
		C172,108.7,172.2,108.1,172.4,107.5z"/>
	<path class="st42" d="M195.7,68c-0.6,1.9-1.1,3.9-1.7,5.8c0-0.3-0.1-0.6-0.4-0.8c-1.1-0.8-2.1-1.5-3.2-2.3
		c-0.3-0.2-0.5-0.3-0.9-0.2c1.1-1.5,2.2-2.9,3.4-4.4c0.7,0.7,1.5,1.2,2.4,1.8c0.1-0.2,0.2-0.4,0.3-0.6
		C195.7,67.6,195.7,67.8,195.7,68z"/>
	<path class="st43" d="M189.7,70.5c0.3-0.1,0.6,0,0.9,0.2c1,0.8,2.1,1.6,3.2,2.3c0.3,0.2,0.4,0.5,0.4,0.8c-0.4,0.9-0.8,1.9-1.3,2.8
		c-1.4-1.4-2.8-2.7-4.2-4.1C188.9,71.9,189.3,71.2,189.7,70.5z"/>
	<path class="st44" d="M195.7,67.3c-0.1,0.2-0.2,0.4-0.3,0.6c-0.8-0.6-1.7-1.1-2.4-1.8c0.2-0.2,0.3-0.3,0.5-0.5
		c0.5-0.4,0.9-1,1.6-0.7c0.6,0.3,0.5,1.1,0.6,1.7C195.7,66.8,195.7,67.1,195.7,67.3z"/>
	<path class="st32" d="M172.5,109.1c0.5-0.7,1.1-1.3,1.8-1.9C173.9,108.1,173.2,108.6,172.5,109.1z"/>
	<path class="st0" d="M97.4,146.4c-2.1,3.6-4.9,6.6-8.3,9.1c-1.8,1.4-3.8,2.5-6,3.1c-1.4,0.4-2.8,0.5-4.2-0.1
		c-1.5-1.5-1.7-3.7-0.6-6.1c1.1-2.3,3.1-3.9,5-5.4c4.8-3.8,10.3-6.6,15.4-9.9c0.5-0.3,0.9-0.6,1.4-0.9c0.3,0.2,0.1,0.5,0.2,0.8
		c-0.4,2.5-1,5-2.1,7.4C98,145.1,97.7,145.8,97.4,146.4z"/>
	<path class="st20" d="M66.5,82.4c0.3-0.9,0.4-1.7,0.9-2.5C67.3,80.8,67.2,81.7,66.5,82.4z"/>
</g>
</svg>
