<?xml version="1.0" encoding="utf-8"?>
<!-- Generator: Adobe Illustrator 24.0.2, SVG Export Plug-In . SVG Version: 6.00 Build 0)  -->
<svg version="1.1" id="Capa_1" xmlns="http://www.w3.org/2000/svg" xmlns:xlink="http://www.w3.org/1999/xlink" x="0px" y="0px"
	 viewBox="0 0 760 532" style="enable-background:new 0 0 760 532;" xml:space="preserve">
<style type="text/css">
	.st0{fill:#E23E11;}
	.st1{fill:#FFFFFF;}
	.st2{font-family:'MyriadPro-Regular';}
	.st3{font-size:260.2883px;}
	.st4{font-size:125.2216px;}
	.st5{font-size:260.29px;}
	.st6{fill:#0F184A;}
</style>
<g>
	<circle class="st0" cx="384" cy="244" r="208"/>
</g>
<text transform="matrix(1 0 0 1 265.0313 282.7603)" class="st1 st2 st3">F</text>
<text transform="matrix(1 0 0 1 240.1484 393.6953)" class="st1 st2 st4">SOFT</text>
<text transform="matrix(1 0 0 1 414.9917 283.1045)" class="st1 st2 st5">I</text>
<g>
	<circle class="st1" cx="221" cy="382" r="27"/>
	<circle class="st0" cx="220.6" cy="382.4" r="16.3"/>
</g>
<g>
	<circle class="st1" cx="166" cy="378" r="27"/>
	<circle class="st6" cx="165.6" cy="378.4" r="16.3"/>
</g>
<g>
	<circle class="st1" cx="198" cy="336" r="24"/>
	<circle class="st6" cx="197.6" cy="336.4" r="14.5"/>
</g>
<g>
	<circle class="st1" cx="148" cy="327" r="24"/>
	<circle class="st0" cx="147.6" cy="327.4" r="14.5"/>
</g>
<g>
	<circle class="st1" cx="181.5" cy="292.5" r="22.5"/>
	<circle class="st0" cx="181.2" cy="292.8" r="13.6"/>
</g>
<g>
	<circle class="st1" cx="138.5" cy="273.5" r="22.5"/>
	<circle class="st6" cx="138.2" cy="273.8" r="13.6"/>
</g>
<g>
	<circle class="st1" cx="176.5" cy="248.5" r="21.5"/>
	<circle class="st6" cx="176.2" cy="248.8" r="13"/>
</g>
<g>
	<circle class="st1" cx="138.5" cy="225.5" r="21.5"/>
	<circle class="st0" cx="138.2" cy="225.8" r="13"/>
</g>
<g>
	<circle class="st1" cx="179" cy="207" r="20"/>
	<circle class="st0" cx="178.7" cy="207.3" r="12.1"/>
</g>
<g>
	<circle class="st1" cx="149" cy="179" r="20"/>
	<circle class="st6" cx="148.7" cy="179.3" r="12.1"/>
</g>
<g>
	<circle class="st1" cx="189" cy="169" r="19"/>
	<circle class="st6" cx="188.7" cy="169.3" r="11.5"/>
</g>
<g>
	<circle class="st1" cx="168" cy="135" r="19"/>
	<circle class="st0" cx="167.7" cy="135.3" r="11.5"/>
</g>
<g>
	<circle class="st1" cx="206.5" cy="136.5" r="17.5"/>
	<circle class="st0" cx="206.2" cy="136.8" r="10.6"/>
</g>
<g>
	<circle class="st1" cx="193.5" cy="103.5" r="17.5"/>
	<circle class="st6" cx="193.2" cy="103.8" r="10.6"/>
</g>
<g>
	<circle class="st1" cx="227" cy="109" r="16"/>
	<circle class="st6" cx="226.8" cy="109.2" r="9.6"/>
</g>
<g>
	<circle class="st1" cx="218" cy="78" r="16"/>
	<circle class="st0" cx="217.8" cy="78.2" r="9.6"/>
</g>
<g>
	<circle class="st1" cx="248" cy="87" r="14"/>
	<circle class="st0" cx="247.8" cy="87.2" r="8.4"/>
</g>
<g>
	<circle class="st1" cx="245" cy="59" r="14"/>
	<circle class="st6" cx="244.8" cy="59.2" r="8.4"/>
</g>
<g>
	<circle class="st1" cx="270" cy="71" r="13"/>
	<circle class="st6" cx="269.8" cy="71.2" r="7.8"/>
</g>
<g>
	<circle class="st1" cx="270" cy="44" r="13"/>
	<circle class="st0" cx="269.8" cy="44.2" r="7.8"/>
</g>
<g>
	<circle class="st1" cx="292" cy="58" r="12"/>
	<circle class="st0" cx="291.8" cy="58.2" r="7.2"/>
</g>
<g>
	<circle class="st1" cx="296" cy="34" r="12"/>
	<circle class="st6" cx="295.8" cy="34.2" r="7.2"/>
</g>
<g>
	<circle class="st1" cx="314" cy="49" r="11"/>
	<circle class="st6" cx="313.8" cy="49.2" r="6.6"/>
</g>
<g>
	<circle class="st1" cx="320" cy="27" r="11"/>
	<circle class="st0" cx="319.8" cy="27.2" r="6.6"/>
</g>
<g>
	<circle class="st1" cx="335" cy="43" r="10"/>
	<circle class="st0" cx="334.9" cy="43.1" r="6"/>
</g>
<g>
	<circle class="st1" cx="342" cy="23" r="10"/>
	<circle class="st6" cx="341.9" cy="23.1" r="6"/>
</g>
<g>
	<g>
		<path class="st1" d="M16.1,515c-1.5-0.3-3-0.8-4.3-1.5c-1.3-0.7-2.6-1.5-3.7-2.4l3.1-3.8c1.4,1.2,2.8,2.1,4.5,2.6
			c1.6,0.6,3.4,0.9,5.3,0.9c2.6,0,4.6-0.5,6-1.4c1.4-1,2.1-2.3,2.1-4v0c0-1.2-0.3-2.2-1-2.9c-0.6-0.7-1.5-1.3-2.5-1.6
			c-1-0.4-2.3-0.7-3.9-1c0,0-0.1,0-0.2,0c-0.1,0-0.1,0-0.2,0l-0.4-0.1c-2.4-0.4-4.3-0.9-5.8-1.4c-1.5-0.5-2.8-1.4-3.8-2.8
			c-1.1-1.4-1.6-3.3-1.6-5.8v0c0-2.2,0.5-4.1,1.5-5.6c1-1.6,2.4-2.7,4.3-3.6c1.9-0.8,4.2-1.2,6.8-1.2c1.3,0,2.5,0.1,3.7,0.4
			c1.2,0.3,2.4,0.7,3.6,1.2c1.2,0.5,2.4,1.2,3.5,2.1l-2.8,4c-1.4-1-2.7-1.7-4-2.2c-1.3-0.5-2.7-0.7-4-0.7c-2.4,0-4.3,0.5-5.7,1.5
			c-1.3,1-2,2.3-2,4.1v0c0,1.2,0.3,2.2,1,2.9c0.7,0.7,1.6,1.2,2.6,1.6c1,0.3,2.5,0.7,4.3,1c0.1,0,0.1,0,0.2,0c0.1,0,0.1,0,0.2,0
			c0.1,0,0.2,0,0.3,0c0.1,0,0.2,0,0.3,0c2.1,0.4,3.9,1,5.4,1.6c1.4,0.6,2.6,1.6,3.6,2.9c1,1.3,1.5,3.2,1.5,5.5v0
			c0,2.2-0.5,4-1.5,5.6c-1,1.5-2.5,2.7-4.5,3.5c-1.9,0.8-4.3,1.2-7,1.2C19.2,515.5,17.6,515.3,16.1,515z"/>
		<path class="st1" d="M40.5,479.6h5v5h-5V479.6z M40.5,489.8h5v25.3h-5V489.8z"/>
		<path class="st1" d="M57.8,515c-1.3-0.3-2.5-0.7-3.7-1.3c-1.1-0.6-2.2-1.3-3.1-2.2l3-3.6c1.4,1,2.7,1.8,4.1,2.3
			c1.4,0.5,2.7,0.8,4,0.8c2,0,3.4-0.3,4.4-0.9c1-0.6,1.5-1.5,1.5-2.7c0-0.8-0.3-1.4-0.8-1.8c-0.5-0.4-1.2-0.7-2-0.8
			c-0.8-0.1-1.9-0.3-3.4-0.4c-0.1,0-0.3,0-0.4,0c-0.1,0-0.3,0-0.4,0c-0.1,0-0.1,0-0.2,0c-0.1,0-0.1,0-0.2,0c-1.6-0.1-3-0.4-4.2-0.7
			c-1.1-0.4-2.1-1-2.8-2c-0.8-1-1.1-2.3-1.1-4.1c0-1.8,0.4-3.3,1.1-4.5c0.7-1.2,1.8-2.1,3.3-2.7c1.4-0.6,3.3-0.9,5.4-0.9
			c1.3,0,2.6,0.1,3.8,0.4s2.3,0.6,3.4,1.1c1.1,0.5,2.1,1.1,3.1,1.8l-3,3.6c-1.3-0.8-2.5-1.4-3.7-1.8c-1.2-0.4-2.4-0.6-3.6-0.6
			c-1.7,0-3,0.3-3.8,0.9c-0.8,0.6-1.3,1.4-1.3,2.6c0,0.7,0.2,1.2,0.7,1.5c0.5,0.3,1.1,0.6,1.8,0.7c0.7,0.1,1.8,0.2,3.1,0.3
			c0.1,0,0.2,0,0.3,0c0.1,0,0.2,0,0.3,0c0,0,0.1,0,0.1,0s0.1,0,0.1,0c1.8,0.1,3.3,0.4,4.5,0.7c1.2,0.4,2.3,1.1,3.1,2.1
			c0.8,1.1,1.3,2.6,1.3,4.6c0,1.8-0.4,3.3-1.2,4.5c-0.8,1.2-2,2.1-3.5,2.7c-1.6,0.6-3.5,0.9-5.9,0.9C60.6,515.5,59.2,515.3,57.8,515
			z"/>
		<path class="st1" d="M77.1,489.8h11.4v4.5H77.1V489.8z M81.1,513.5c-1-1.1-1.4-2.8-1.4-5v-26.1h5v26.2c0,0.6,0.1,1.1,0.4,1.4
			c0.2,0.3,0.6,0.5,1.1,0.5h2.4v4.7h-2.9C83.6,515.2,82.1,514.7,81.1,513.5z"/>
		<path class="st1" d="M99.7,514.2c-1.7-0.9-2.9-2.2-3.8-3.9c-0.9-1.7-1.3-3.8-1.3-6.2v-2.9c0-2.5,0.4-4.6,1.3-6.4
			c0.8-1.8,2.1-3.1,3.6-4.1c1.6-0.9,3.5-1.4,5.8-1.4c2.1,0,3.9,0.5,5.4,1.6c1.5,1.1,2.6,2.6,3.4,4.6c0.8,2,1.2,4.4,1.2,7.2v1.7H98.2
			v-4h12.4c-0.1-2.1-0.7-3.7-1.6-4.8c-0.9-1.1-2.2-1.7-3.7-1.7c-1.9,0-3.3,0.6-4.4,1.9c-1,1.2-1.6,3-1.6,5.2v3.2
			c0,2.1,0.6,3.7,1.7,4.8c1.1,1.1,2.7,1.7,4.7,1.7c1,0,2-0.2,3-0.6c1-0.4,1.9-1,2.7-1.7l3.3,3.3c-1.3,1.2-2.7,2.1-4.2,2.8
			c-1.6,0.7-3.1,1-4.7,1C103.4,515.5,101.4,515,99.7,514.2z"/>
		<path class="st1" d="M122.1,489.8h5v25.3h-5V489.8z M137.3,499.8c0-1.8-0.4-3.2-1.3-4.2s-2.1-1.5-3.7-1.5c-1.6,0-2.9,0.4-3.8,1.3
			c-0.9,0.9-1.3,2.1-1.3,3.6l-0.5-4.9c0.8-1.5,1.8-2.7,3.1-3.5c1.3-0.8,2.7-1.2,4.2-1.2c1.8,0,3.3,0.4,4.5,1.2
			c1.3,0.8,2.2,2,2.9,3.5c0.7,1.5,1,3.4,1,5.6v15.4h-5V499.8z M152.4,499.8c0-1.8-0.5-3.2-1.4-4.2s-2.2-1.5-3.9-1.5
			c-1.5,0-2.7,0.5-3.6,1.4c-0.8,0.9-1.3,2.3-1.3,4l-1-4.9c0.8-1.7,1.9-3,3.2-3.9c1.3-0.9,2.8-1.4,4.3-1.4c1.8,0,3.4,0.4,4.7,1.2
			c1.3,0.8,2.3,2,3,3.5c0.7,1.5,1,3.4,1,5.6v15.4h-5V499.8z"/>
		<path class="st1" d="M166.1,513.5c-1.5-1.3-2.3-3.3-2.3-5.9c0-2.5,0.7-4.4,2.1-5.6c1.4-1.3,3.6-1.9,6.4-1.9h7.2l0.3,4h-7.5
			c-1.3,0-2.3,0.3-2.9,0.9c-0.6,0.6-1,1.5-1,2.6c0,1.3,0.4,2.2,1.3,2.9c0.9,0.6,2.2,0.9,3.9,0.9c1.9,0,3.3-0.2,4.3-0.6
			c0.9-0.4,1.4-1,1.4-1.9l0.5,3.6c-0.4,0.7-1,1.2-1.6,1.7c-0.6,0.4-1.4,0.8-2.2,1c-0.8,0.2-1.8,0.3-2.9,0.3
			C169.9,515.5,167.6,514.8,166.1,513.5z M179.3,499c0-1.7-0.4-3-1.3-3.9c-0.9-0.9-2.1-1.4-3.8-1.4c-1,0-2,0.2-3,0.5
			c-1,0.3-1.8,0.7-2.6,1.3l-3.6-2.5c1-1.2,2.2-2.1,3.8-2.7c1.6-0.6,3.3-1,5.2-1c2.1,0,3.9,0.4,5.4,1.1c1.5,0.7,2.6,1.8,3.4,3.2
			c0.8,1.4,1.2,3.1,1.2,5.1v16.3h-4.7V499z"/>
		<path class="st1" d="M203,489.8h12.7v4.2H203V489.8z M205.7,486.3c0-2.2,0.5-3.9,1.6-5c1-1.1,2.6-1.7,4.8-1.7h3.7v4.7h-3.6
			c-0.5,0-0.8,0.2-1.1,0.5c-0.2,0.4-0.4,0.8-0.4,1.4v28.8h-5V486.3z"/>
		<path class="st1" d="M221.9,513.5c-1.5-1.3-2.3-3.3-2.3-5.9c0-2.5,0.7-4.4,2.1-5.6c1.4-1.3,3.6-1.9,6.4-1.9h7.2l0.3,4h-7.5
			c-1.3,0-2.3,0.3-2.9,0.9c-0.6,0.6-1,1.5-1,2.6c0,1.3,0.4,2.2,1.3,2.9c0.9,0.6,2.2,0.9,3.9,0.9c1.9,0,3.3-0.2,4.3-0.6
			c0.9-0.4,1.4-1,1.4-1.9l0.5,3.6c-0.4,0.7-1,1.2-1.6,1.7c-0.6,0.4-1.4,0.8-2.2,1c-0.8,0.2-1.8,0.3-2.9,0.3
			C225.8,515.5,223.5,514.8,221.9,513.5z M235.2,499c0-1.7-0.4-3-1.3-3.9c-0.9-0.9-2.1-1.4-3.8-1.4c-1,0-2,0.2-3,0.5
			c-1,0.3-1.8,0.7-2.6,1.3l-3.6-2.5c1-1.2,2.2-2.1,3.8-2.7c1.6-0.6,3.3-1,5.2-1c2.1,0,3.9,0.4,5.4,1.1c1.5,0.7,2.6,1.8,3.4,3.2
			c0.8,1.4,1.2,3.1,1.2,5.1v16.3h-4.7V499z"/>
		<path class="st1" d="M251.8,514.2c-1.6-0.9-2.9-2.1-3.7-3.8c-0.9-1.6-1.3-3.6-1.3-6v-4.2c0-2.3,0.4-4.3,1.3-5.9
			c0.9-1.6,2.1-2.9,3.7-3.7c1.6-0.9,3.6-1.3,5.9-1.3c1.3,0,2.6,0.2,3.7,0.5c1.2,0.3,2.2,0.8,3.1,1.4c0.9,0.6,1.7,1.3,2.3,2.2
			l-3.6,3.2c-0.7-0.8-1.6-1.4-2.5-1.9c-1-0.4-2-0.7-3-0.7c-1.9,0-3.4,0.5-4.5,1.6c-1.1,1.1-1.6,2.6-1.6,4.5v4.2c0,2,0.5,3.5,1.6,4.6
			c1,1.1,2.5,1.6,4.5,1.6c1.1,0,2.1-0.2,3-0.7c1-0.5,1.8-1.1,2.5-2l3.6,3.5c-0.6,0.8-1.4,1.6-2.3,2.2c-0.9,0.6-2,1-3.1,1.4
			c-1.2,0.3-2.4,0.5-3.7,0.5C255.4,515.5,253.4,515,251.8,514.2z"/>
		<path class="st1" d="M270.4,489.8h11.4v4.5h-11.4V489.8z M274.4,513.5c-1-1.1-1.4-2.8-1.4-5v-26.1h5v26.2c0,0.6,0.1,1.1,0.4,1.4
			c0.2,0.3,0.6,0.5,1.1,0.5h2.4v4.7H279C276.9,515.2,275.4,514.7,274.4,513.5z"/>
		<path class="st1" d="M293.6,505.2c0,1.8,0.5,3.1,1.4,4.1c0.9,1,2.2,1.5,3.8,1.5c1.6,0,2.9-0.4,3.8-1.3c0.9-0.9,1.3-2.1,1.3-3.7
			l0.3,5.3c-0.5,1.3-1.4,2.3-2.5,3.1c-1.2,0.8-2.6,1.3-4.3,1.3c-2.8,0-5-0.9-6.5-2.7c-1.5-1.8-2.3-4.3-2.3-7.6v-15.4h5V505.2z
			 M304,489.8h5v25.3h-5V489.8z"/>
		<path class="st1" d="M316.5,489.8h5v25.3h-5V489.8z M328.8,494.6c-0.7-0.3-1.4-0.4-2.3-0.4c-1.6,0-2.8,0.4-3.7,1.3
			c-0.9,0.9-1.3,2.1-1.3,3.6l-0.5-4.9c0.8-1.5,1.8-2.7,3-3.5c1.2-0.8,2.6-1.3,4.1-1.3c1.2,0,2.2,0.2,3.1,0.5
			c0.9,0.3,1.8,0.8,2.5,1.5l-3.2,4.4C330,495.2,329.4,494.8,328.8,494.6z"/>
		<path class="st1" d="M338.9,513.5c-1.5-1.3-2.3-3.3-2.3-5.9c0-2.5,0.7-4.4,2.1-5.6c1.4-1.3,3.6-1.9,6.4-1.9h7.2l0.3,4h-7.5
			c-1.3,0-2.3,0.3-2.9,0.9c-0.6,0.6-1,1.5-1,2.6c0,1.3,0.4,2.2,1.3,2.9c0.9,0.6,2.2,0.9,3.9,0.9c1.9,0,3.3-0.2,4.3-0.6
			c0.9-0.4,1.4-1,1.4-1.9l0.5,3.6c-0.4,0.7-1,1.2-1.6,1.7c-0.6,0.4-1.4,0.8-2.2,1c-0.8,0.2-1.8,0.3-2.9,0.3
			C342.8,515.5,340.5,514.8,338.9,513.5z M352.1,499c0-1.7-0.4-3-1.3-3.9c-0.9-0.9-2.1-1.4-3.8-1.4c-1,0-2,0.2-3,0.5
			c-1,0.3-1.8,0.7-2.6,1.3l-3.6-2.5c1-1.2,2.2-2.1,3.8-2.7c1.6-0.6,3.3-1,5.2-1c2.1,0,3.9,0.4,5.4,1.1c1.5,0.7,2.6,1.8,3.4,3.2
			c0.8,1.4,1.2,3.1,1.2,5.1v16.3h-4.7V499z"/>
		<path class="st1" d="M368.7,514.2c-1.6-0.9-2.9-2.1-3.7-3.8c-0.9-1.6-1.3-3.6-1.3-6v-4.2c0-2.3,0.4-4.3,1.3-5.9
			c0.9-1.6,2.1-2.9,3.7-3.7c1.6-0.9,3.6-1.3,5.9-1.3c1.3,0,2.6,0.2,3.7,0.5c1.2,0.3,2.2,0.8,3.1,1.4c0.9,0.6,1.7,1.3,2.3,2.2
			l-3.6,3.2c-0.7-0.8-1.6-1.4-2.5-1.9c-1-0.4-2-0.7-3-0.7c-1.9,0-3.4,0.5-4.5,1.6c-1.1,1.1-1.6,2.6-1.6,4.5v4.2c0,2,0.5,3.5,1.6,4.6
			c1.1,1.1,2.5,1.6,4.5,1.6c1.1,0,2.1-0.2,3-0.7c1-0.5,1.8-1.1,2.5-2l3.6,3.5c-0.6,0.8-1.4,1.6-2.3,2.2c-0.9,0.6-2,1-3.1,1.4
			c-1.2,0.3-2.4,0.5-3.7,0.5C372.3,515.5,370.4,515,368.7,514.2z"/>
		<path class="st1" d="M389.3,479.6h5v5h-5V479.6z M389.3,489.8h5v25.3h-5V489.8z"/>
		<path class="st1" d="M406,514.2c-1.6-0.9-2.8-2.1-3.6-3.8c-0.8-1.7-1.2-3.6-1.2-6v-4.1c0-2.3,0.4-4.3,1.2-5.9
			c0.8-1.6,2-2.9,3.6-3.7c1.6-0.9,3.4-1.3,5.6-1.3s4.1,0.4,5.6,1.3c1.6,0.9,2.8,2.1,3.6,3.7c0.8,1.6,1.2,3.6,1.2,5.9v4.2
			c0,2.3-0.4,4.3-1.2,5.9c-0.8,1.6-2,2.9-3.6,3.7c-1.6,0.9-3.4,1.3-5.6,1.3S407.5,515,406,514.2z M415.6,509.1
			c1-1.1,1.4-2.6,1.4-4.6v-4.2c0-2-0.5-3.5-1.4-4.6c-1-1.1-2.3-1.6-4-1.6c-1.7,0-3.1,0.5-4,1.6c-1,1.1-1.4,2.6-1.4,4.6v4.2
			c0,2,0.5,3.5,1.4,4.6c1,1.1,2.3,1.6,4,1.6C413.3,510.7,414.7,510.2,415.6,509.1z M408.9,482.4l7-8.7l3.6,3l-7.4,8.2L408.9,482.4z"
			/>
		<path class="st1" d="M429.1,489.8h5v25.3h-5V489.8z M444.5,499.8c0-1.8-0.5-3.2-1.4-4.2s-2.2-1.5-3.9-1.5c-1.6,0-2.9,0.4-3.8,1.3
			c-0.9,0.9-1.3,2.1-1.3,3.6l-0.5-4.9c0.8-1.5,1.8-2.7,3.1-3.5c1.3-0.8,2.7-1.2,4.2-1.2c2.8,0,4.9,0.9,6.4,2.7
			c1.5,1.8,2.3,4.3,2.3,7.6v15.4h-5V499.8z"/>
		<path class="st1" d="M474.9,514.2c-1.7-0.9-2.9-2.2-3.8-3.9c-0.9-1.7-1.3-3.8-1.3-6.2v-2.9c0-2.5,0.4-4.6,1.3-6.4
			c0.8-1.8,2.1-3.1,3.6-4.1c1.6-0.9,3.5-1.4,5.8-1.4c2.1,0,3.9,0.5,5.4,1.6c1.5,1.1,2.6,2.6,3.4,4.6c0.8,2,1.2,4.4,1.2,7.2v1.7
			h-17.1v-4h12.4c-0.1-2.1-0.7-3.7-1.6-4.8c-0.9-1.1-2.2-1.7-3.7-1.7c-1.9,0-3.3,0.6-4.4,1.9c-1,1.2-1.6,3-1.6,5.2v3.2
			c0,2.1,0.6,3.7,1.7,4.8c1.1,1.1,2.7,1.7,4.7,1.7c1,0,2-0.2,3-0.6c1-0.4,1.9-1,2.7-1.7l3.3,3.3c-1.3,1.2-2.7,2.1-4.2,2.8
			c-1.6,0.7-3.1,1-4.7,1C478.5,515.5,476.5,515,474.9,514.2z"/>
		<path class="st1" d="M510.7,479.6h5v5h-5V479.6z M510.7,489.8h5v25.3h-5V489.8z"/>
		<path class="st1" d="M523.3,489.8h5v25.3h-5V489.8z M538.6,499.8c0-1.8-0.5-3.2-1.4-4.2s-2.2-1.5-3.9-1.5c-1.6,0-2.9,0.4-3.8,1.3
			c-0.9,0.9-1.3,2.1-1.3,3.6l-0.5-4.9c0.8-1.5,1.8-2.7,3.1-3.5c1.3-0.8,2.7-1.2,4.2-1.2c2.8,0,4.9,0.9,6.4,2.7
			c1.5,1.8,2.3,4.3,2.3,7.6v15.4h-5V499.8z"/>
		<path class="st1" d="M566.1,489.8h5.2l-9.5,25.3H558l-9.5-25.3h5.2l6.2,18.1L566.1,489.8z"/>
		<path class="st1" d="M580.6,514.2c-1.7-0.9-2.9-2.2-3.8-3.9c-0.9-1.7-1.3-3.8-1.3-6.2v-2.9c0-2.5,0.4-4.6,1.3-6.4
			c0.8-1.8,2.1-3.1,3.6-4.1c1.6-0.9,3.5-1.4,5.8-1.4c2.1,0,3.9,0.5,5.4,1.6c1.5,1.1,2.6,2.6,3.4,4.6c0.8,2,1.2,4.4,1.2,7.2v1.7
			h-17.1v-4h12.4c-0.1-2.1-0.7-3.7-1.6-4.8c-0.9-1.1-2.2-1.7-3.7-1.7c-1.9,0-3.3,0.6-4.4,1.9c-1,1.2-1.6,3-1.6,5.2v3.2
			c0,2.1,0.6,3.7,1.7,4.8c1.1,1.1,2.7,1.7,4.7,1.7c1,0,2-0.2,3-0.6c1-0.4,1.9-1,2.7-1.7l3.3,3.3c-1.3,1.2-2.7,2.1-4.2,2.8
			c-1.6,0.7-3.1,1-4.7,1C584.2,515.5,582.2,515,580.6,514.2z"/>
		<path class="st1" d="M603,489.8h5v25.3h-5V489.8z M618.4,499.8c0-1.8-0.5-3.2-1.4-4.2s-2.2-1.5-3.9-1.5c-1.6,0-2.9,0.4-3.8,1.3
			c-0.9,0.9-1.3,2.1-1.3,3.6l-0.5-4.9c0.8-1.5,1.8-2.7,3.1-3.5c1.3-0.8,2.7-1.2,4.2-1.2c2.8,0,4.9,0.9,6.4,2.7
			c1.5,1.8,2.3,4.3,2.3,7.6v15.4h-5V499.8z"/>
		<path class="st1" d="M629,489.8h11.4v4.5H629V489.8z M633,513.5c-1-1.1-1.4-2.8-1.4-5v-26.1h5v26.2c0,0.6,0.1,1.1,0.4,1.4
			c0.2,0.3,0.6,0.5,1.1,0.5h2.4v4.7h-2.9C635.5,515.2,634,514.7,633,513.5z"/>
		<path class="st1" d="M648.3,513.5c-1.5-1.3-2.3-3.3-2.3-5.9c0-2.5,0.7-4.4,2.1-5.6c1.4-1.3,3.6-1.9,6.4-1.9h7.2l0.3,4h-7.5
			c-1.3,0-2.3,0.3-2.9,0.9c-0.6,0.6-1,1.5-1,2.6c0,1.3,0.4,2.2,1.3,2.9c0.9,0.6,2.2,0.9,3.9,0.9c1.9,0,3.3-0.2,4.3-0.6
			c0.9-0.4,1.4-1,1.4-1.9l0.5,3.6c-0.4,0.7-1,1.2-1.6,1.7c-0.6,0.4-1.4,0.8-2.2,1c-0.8,0.2-1.8,0.3-2.9,0.3
			C652.2,515.5,649.9,514.8,648.3,513.5z M661.5,499c0-1.7-0.4-3-1.3-3.9c-0.9-0.9-2.1-1.4-3.8-1.4c-1,0-2,0.2-3,0.5
			c-1,0.3-1.8,0.7-2.6,1.3l-3.6-2.5c1-1.2,2.2-2.1,3.8-2.7c1.6-0.6,3.3-1,5.2-1c2.1,0,3.9,0.4,5.4,1.1c1.5,0.7,2.6,1.8,3.4,3.2
			c0.8,1.4,1.2,3.1,1.2,5.1v16.3h-4.7V499z"/>
		<path class="st1" d="M673.8,489.8h5v25.3h-5V489.8z M686.1,494.6c-0.7-0.3-1.4-0.4-2.3-0.4c-1.6,0-2.8,0.4-3.7,1.3
			c-0.9,0.9-1.3,2.1-1.3,3.6l-0.5-4.9c0.8-1.5,1.8-2.7,3-3.5c1.2-0.8,2.6-1.3,4.1-1.3c1.2,0,2.2,0.2,3.1,0.5
			c0.9,0.3,1.8,0.8,2.5,1.5l-3.2,4.4C687.4,495.2,686.8,494.8,686.1,494.6z"/>
		<path class="st1" d="M695.2,479.6h5v5h-5V479.6z M695.2,489.8h5v25.3h-5V489.8z"/>
		<path class="st1" d="M711.8,514.2c-1.6-0.9-2.8-2.1-3.6-3.8c-0.8-1.7-1.2-3.6-1.2-6v-4.1c0-2.3,0.4-4.3,1.2-5.9
			c0.8-1.6,2-2.9,3.6-3.7c1.6-0.9,3.4-1.3,5.6-1.3s4.1,0.4,5.6,1.3c1.6,0.9,2.8,2.1,3.6,3.7c0.8,1.6,1.2,3.6,1.2,5.9v4.2
			c0,2.3-0.4,4.3-1.2,5.9c-0.8,1.6-2,2.9-3.6,3.7c-1.6,0.9-3.4,1.3-5.6,1.3S713.4,515,711.8,514.2z M721.5,509.1
			c1-1.1,1.4-2.6,1.4-4.6v-4.2c0-2-0.5-3.5-1.4-4.6c-1-1.1-2.3-1.6-4-1.6c-1.7,0-3.1,0.5-4,1.6c-1,1.1-1.4,2.6-1.4,4.6v4.2
			c0,2,0.5,3.5,1.4,4.6c1,1.1,2.3,1.6,4,1.6C719.2,510.7,720.5,510.2,721.5,509.1z"/>
		<path class="st1" d="M739.7,515c-1.3-0.3-2.5-0.7-3.7-1.3c-1.1-0.6-2.2-1.3-3.1-2.2l3-3.6c1.4,1,2.7,1.8,4.1,2.3
			c1.4,0.5,2.7,0.8,4,0.8c2,0,3.4-0.3,4.4-0.9c1-0.6,1.5-1.5,1.5-2.7c0-0.8-0.3-1.4-0.8-1.8c-0.5-0.4-1.2-0.7-2-0.8
			c-0.8-0.1-1.9-0.3-3.4-0.4c-0.1,0-0.3,0-0.4,0c-0.1,0-0.3,0-0.4,0c-0.1,0-0.1,0-0.2,0c-0.1,0-0.1,0-0.2,0c-1.6-0.1-3-0.4-4.2-0.7
			c-1.1-0.4-2.1-1-2.8-2c-0.8-1-1.1-2.3-1.1-4.1c0-1.8,0.4-3.3,1.1-4.5c0.7-1.2,1.8-2.1,3.3-2.7c1.4-0.6,3.3-0.9,5.4-0.9
			c1.3,0,2.6,0.1,3.8,0.4c1.2,0.2,2.3,0.6,3.4,1.1c1.1,0.5,2.1,1.1,3.1,1.8l-3,3.6c-1.3-0.8-2.5-1.4-3.7-1.8
			c-1.2-0.4-2.4-0.6-3.6-0.6c-1.7,0-3,0.3-3.8,0.9c-0.8,0.6-1.3,1.4-1.3,2.6c0,0.7,0.2,1.2,0.7,1.5c0.5,0.3,1.1,0.6,1.8,0.7
			c0.7,0.1,1.8,0.2,3.1,0.3c0.1,0,0.2,0,0.3,0c0.1,0,0.2,0,0.3,0c0,0,0.1,0,0.1,0s0.1,0,0.1,0c1.8,0.1,3.3,0.4,4.5,0.7
			c1.2,0.4,2.3,1.1,3.1,2.1c0.8,1.1,1.3,2.6,1.3,4.6c0,1.8-0.4,3.3-1.2,4.5c-0.8,1.2-2,2.1-3.5,2.7c-1.6,0.6-3.5,0.9-5.9,0.9
			C742.4,515.5,741,515.3,739.7,515z"/>
	</g>
</g>
</svg>
