<?xml version="1.0" encoding="utf-8"?>
<!-- Generator: Adobe Illustrator 24.0.2, SVG Export Plug-In . SVG Version: 6.00 Build 0)  -->
<svg version="1.1" id="Capa_1" xmlns="http://www.w3.org/2000/svg" xmlns:xlink="http://www.w3.org/1999/xlink" x="0px" y="0px"
	 viewBox="0 0 574 532" style="enable-background:new 0 0 574 532;" xml:space="preserve">
<style type="text/css">
	.st0{fill:#E23E11;}
	.st1{fill:#FFFFFF;}
	.st2{font-family:'MyriadPro-Regular';}
	.st3{font-size:307.7213px;}
	.st4{font-size:148.041px;}
	.st5{font-size:307.7233px;}
	.st6{fill:#0F184A;}
</style>
<g>
	<circle class="st0" cx="322.8" cy="278.1" r="245.9"/>
</g>
<text transform="matrix(1 0 0 1 182.1895 323.9199)" class="st1 st2 st3">F</text>
<text transform="matrix(1 0 0 1 152.7725 455.0703)" class="st1 st2 st4">SOFT</text>
<text transform="matrix(1 0 0 1 359.4785 324.3262)" class="st1 st2 st5">I</text>
<g>
	<circle class="st1" cx="130.1" cy="441.2" r="31.9"/>
	<circle class="st0" cx="129.7" cy="441.7" r="19.2"/>
</g>
<g>
	<circle class="st1" cx="65.1" cy="436.5" r="31.9"/>
	<circle class="st6" cx="64.6" cy="437" r="19.2"/>
</g>
<g>
	<circle class="st1" cx="102.9" cy="386.9" r="28.4"/>
	<circle class="st6" cx="102.5" cy="387.3" r="17.1"/>
</g>
<g>
	<circle class="st1" cx="43.8" cy="376.2" r="28.4"/>
	<circle class="st0" cx="43.4" cy="376.6" r="17.1"/>
</g>
<g>
	<circle class="st1" cx="83.4" cy="335.4" r="26.6"/>
	<circle class="st0" cx="83" cy="335.8" r="16"/>
</g>
<g>
	<circle class="st1" cx="32.6" cy="313" r="26.6"/>
	<circle class="st6" cx="32.2" cy="313.4" r="16"/>
</g>
<g>
	<circle class="st1" cx="77.5" cy="283.4" r="25.4"/>
	<circle class="st6" cx="77.2" cy="283.8" r="15.3"/>
</g>
<g>
	<circle class="st1" cx="32.6" cy="256.2" r="25.4"/>
	<circle class="st0" cx="32.2" cy="256.6" r="15.3"/>
</g>
<g>
	<circle class="st1" cx="80.5" cy="234.4" r="23.6"/>
	<circle class="st0" cx="80.1" cy="234.7" r="14.3"/>
</g>
<g>
	<circle class="st1" cx="45" cy="201.3" r="23.6"/>
	<circle class="st6" cx="44.7" cy="201.6" r="14.3"/>
</g>
<g>
	<circle class="st1" cx="92.3" cy="189.4" r="22.5"/>
	<circle class="st6" cx="92" cy="189.8" r="13.5"/>
</g>
<g>
	<circle class="st1" cx="67.5" cy="149.2" r="22.5"/>
	<circle class="st0" cx="67.1" cy="149.6" r="13.5"/>
</g>
<g>
	<circle class="st1" cx="113" cy="151" r="20.7"/>
	<circle class="st0" cx="112.7" cy="151.3" r="12.5"/>
</g>
<g>
	<circle class="st1" cx="97.6" cy="112" r="20.7"/>
	<circle class="st6" cx="97.3" cy="112.3" r="12.5"/>
</g>
<g>
	<circle class="st1" cx="137.2" cy="118.5" r="18.9"/>
	<circle class="st6" cx="136.9" cy="118.8" r="11.4"/>
</g>
<g>
	<circle class="st1" cx="126.6" cy="81.8" r="18.9"/>
	<circle class="st0" cx="126.3" cy="82.1" r="11.4"/>
</g>
<g>
	<circle class="st1" cx="162.1" cy="92.5" r="16.6"/>
	<circle class="st0" cx="161.8" cy="92.7" r="10"/>
</g>
<g>
	<circle class="st1" cx="158.5" cy="59.4" r="16.6"/>
	<circle class="st6" cx="158.3" cy="59.6" r="10"/>
</g>
<g>
	<circle class="st1" cx="188.1" cy="73.6" r="15.4"/>
	<circle class="st6" cx="187.8" cy="73.8" r="9.3"/>
</g>
<g>
	<circle class="st1" cx="188.1" cy="41.6" r="15.4"/>
	<circle class="st0" cx="187.8" cy="41.9" r="9.3"/>
</g>
<g>
	<circle class="st1" cx="214.1" cy="58.2" r="14.2"/>
	<circle class="st0" cx="213.9" cy="58.4" r="8.6"/>
</g>
<g>
	<circle class="st1" cx="218.8" cy="29.8" r="14.2"/>
	<circle class="st6" cx="218.6" cy="30" r="8.6"/>
</g>
<g>
	<circle class="st1" cx="240.1" cy="47.6" r="13"/>
	<circle class="st6" cx="239.9" cy="47.8" r="7.8"/>
</g>
<g>
	<circle class="st1" cx="247.2" cy="21.6" r="13"/>
	<circle class="st0" cx="247" cy="21.7" r="7.8"/>
</g>
<g>
	<circle class="st1" cx="264.9" cy="40.5" r="11.8"/>
	<circle class="st0" cx="264.7" cy="40.6" r="7.1"/>
</g>
<g>
	<circle class="st1" cx="273.2" cy="16.8" r="11.8"/>
	<circle class="st6" cx="273" cy="17" r="7.1"/>
</g>
</svg>
